<svg xmlns="http://www.w3.org/2000/svg" xmlns:xlink="http://www.w3.org/1999/xlink" width="2000" zoomAndPan="magnify" viewBox="0 0 1500 1499.999933" height="2000" preserveAspectRatio="xMidYMid meet" version="1.0"><defs><clipPath id="7836c543c6"><path d="M 0 0 L 1500 0 L 1500 1500 L 0 1500 Z M 0 0 " clip-rule="nonzero"/></clipPath><clipPath id="25410ac564"><rect x="0" width="1500" y="0" height="1500"/></clipPath></defs><rect x="-150" width="1800" fill="#ffffff" y="-149.999993" height="1799.99992" fill-opacity="1"/><rect x="-150" width="1800" fill="#ffffff" y="-149.999993" height="1799.99992" fill-opacity="1"/><g transform="matrix(1, 0, 0, 1, 0, 0.000000000000112861)"><g clip-path="url(#25410ac564)"><g clip-path="url(#7836c543c6)"><rect x="-330" width="2160" fill="#ffcc00" height="2159.999904" y="-329.999985" fill-opacity="1"/></g></g></g><path fill="#000000" d="M 601.164062 859.675781 C 666.828125 853.320312 716.253906 759.058594 716.960938 677.859375 C 386.867188 791.890625 352.269531 683.863281 413.699219 637.261719 C 503.019531 569.125 662.238281 497.105469 788.625 474.15625 C 793.570312 444.148438 798.863281 414.492188 804.160156 384.484375 C 663.652344 407.433594 519.964844 451.5625 405.226562 516.167969 C 160.925781 653.148438 145.039062 904.15625 601.515625 859.675781 Z M 601.164062 859.675781 " fill-opacity="1" fill-rule="nonzero"/><path fill="#000000" d="M 461.007812 1174.9375 C 390.398438 1249.074219 421.113281 1316.503906 549.265625 1332.390625 C 585.277344 1336.980469 634.703125 1336.628906 692.246094 1331.6875 L 692.246094 1329.214844 C 694.363281 1293.207031 696.484375 1257.546875 699.308594 1221.890625 C 660.824219 1227.539062 623.402344 1232.128906 588.453125 1235.308594 C 549.972656 1238.835938 543.96875 1215.183594 569.742188 1194.355469 C 689.070312 1097.621094 875.121094 1000.535156 1031.515625 982.53125 C 1056.230469 926.046875 1020.570312 858.617188 937.609375 887.566406 C 820.398438 928.515625 541.851562 1089.855469 461.007812 1174.585938 Z M 461.007812 1174.9375 " fill-opacity="1" fill-rule="nonzero"/><path fill="#000000" d="M 1178.378906 693.746094 C 1208.386719 671.152344 1240.160156 651.734375 1268.757812 629.140625 C 1419.152344 509.8125 1346.074219 412.730469 1179.085938 379.894531 C 1115.890625 367.539062 1039.28125 363.65625 957.023438 367.894531 C 951.730469 397.195312 946.433594 426.851562 941.492188 456.503906 C 1305.828125 432.144531 1363.019531 571.597656 921.015625 743.523438 C 900.890625 751.292969 902.304688 814.839844 931.960938 818.015625 C 1715.351562 901.332031 1291.703125 1100.445312 861 1192.589844 C 858.527344 1232.128906 856.761719 1271.316406 855.351562 1310.855469 C 1072.117188 1274.140625 1322.417969 1199.296875 1418.796875 1108.917969 C 1488.347656 1043.609375 1520.472656 943.34375 1471.402344 870.617188 C 1425.152344 802.484375 1381.375 801.777344 1193.558594 743.171875 C 1163.550781 733.640625 1153.3125 713.164062 1178.734375 693.746094 Z M 1178.378906 693.746094 " fill-opacity="1" fill-rule="nonzero"/><path fill="#000000" d="M 727.902344 1109.980469 C 719.785156 1190.117188 714.839844 1249.78125 710.605469 1330.273438 C 710.605469 1343.335938 710.25 1355.691406 710.605469 1366.636719 C 712.015625 1466.195312 834.875 1499.730469 834.519531 1468.664062 C 832.753906 1325.332031 841.582031 1194.707031 851.820312 1051.375 C 809.101562 1068.671875 767.089844 1089.148438 727.902344 1110.332031 Z M 727.902344 1109.980469 " fill-opacity="1" fill-rule="nonzero"/><path fill="#000000" d="M 851.113281 241.152344 C 804.511719 455.800781 765.679688 747.761719 739.554688 965.234375 C 783.683594 941.226562 825.695312 919.691406 860.644531 903.097656 C 870.882812 782.710938 909.71875 521.816406 939.726562 356.242188 C 950.316406 298.34375 917.835938 243.976562 850.761719 241.152344 Z M 851.113281 241.152344 " fill-opacity="1" fill-rule="nonzero"/></svg>